<!DOCTYPE svg PUBLIC "-//W3C//DTD SVG 1.1//EN" "http://www.w3.org/Graphics/SVG/1.1/DTD/svg11.dtd">

<!-- Uploaded to: SVG Repo, www.svgrepo.com, Transformed by: SVG Repo Mixer Tools -->
<svg height="800px" width="800px" version="1.1" id="Layer_1" xmlns="http://www.w3.org/2000/svg" xmlns:xlink="http://www.w3.org/1999/xlink" viewBox="-51.2 -51.2 614.40 614.40" xml:space="preserve" fill="#000000">

<g id="SVGRepo_bgCarrier" stroke-width="0">

<rect x="-51.2" y="-51.2" width="614.40" height="614.40" rx="307.2" fill="#2ca9bc" strokewidth="0"/>

</g>

<g id="SVGRepo_tracerCarrier" stroke-linecap="round" stroke-linejoin="round"/>

<g id="SVGRepo_iconCarrier"> <path style="fill:#000000;" d="M512,272v-32h-65.6c-3.2-41.6-19.2-78.4-44.8-107.2L448,86.4L425.6,64l-46.4,46.4 C348.8,84.8,312,68.8,272,65.6V0h-32v65.6c-41.6,3.2-78.4,19.2-107.2,44.8L86.4,64L64,86.4l46.4,46.4C84.8,163.2,68.8,200,65.6,240 H0v32h65.6c3.2,41.6,19.2,78.4,44.8,107.2L64,425.6L86.4,448l46.4-46.4c30.4,25.6,67.2,41.6,107.2,44.8V512h32v-65.6 c41.6-3.2,78.4-19.2,107.2-44.8l46.4,46.4l22.4-22.4l-46.4-46.4c25.6-30.4,41.6-67.2,44.8-107.2H512z M272,97.6 c32,3.2,60.8,16,84.8,35.2l-57.6,57.6c-8-4.8-17.6-9.6-28.8-11.2V97.6H272z M240,97.6v81.6c-9.6,1.6-19.2,6.4-28.8,11.2l-56-57.6 C179.2,112,208,100.8,240,97.6z M132.8,155.2l57.6,57.6c-4.8,8-9.6,17.6-11.2,28.8H97.6C100.8,208,112,179.2,132.8,155.2z M97.6,272 h81.6c1.6,9.6,6.4,19.2,11.2,28.8l-57.6,57.6C112,332.8,100.8,304,97.6,272z M240,414.4c-32-3.2-60.8-16-84.8-35.2l57.6-57.6 c8,4.8,17.6,9.6,28.8,11.2v81.6H240z M256,304c-27.2,0-48-20.8-48-48s20.8-48,48-48s48,20.8,48,48S283.2,304,256,304z M272,414.4 v-81.6c9.6-1.6,19.2-6.4,28.8-11.2l57.6,57.6C332.8,400,304,411.2,272,414.4z M379.2,356.8l-57.6-57.6c4.8-8,9.6-17.6,11.2-28.8 h81.6C411.2,304,400,332.8,379.2,356.8z M334.4,240c-1.6-9.6-6.4-19.2-11.2-28.8l57.6-57.6c19.2,24,32,52.8,35.2,84.8h-81.6V240z"/> <circle style="fill:#FAA85F;" cx="256" cy="256" r="48"/> </g>

</svg>